<svg data-v-423bf9ae="" xmlns="http://www.w3.org/2000/svg" viewBox="0 0 524 90" class="iconLeft"><!----><!----><!----><g data-v-423bf9ae="" id="edd94f45-7e8f-42ef-ab38-771867a47599" fill="black" transform="matrix(4.535147222295708,0,0,4.535147222295708,111.5604892738493,2.3015872785689524)"><path d="M4.37 3.78L4.37 3.78Q6.58 3.78 7.78 4.95L7.78 4.95L7.78 4.95Q8.97 6.12 8.97 8.33L8.97 8.33L8.97 8.33Q8.97 10.60 7.78 11.81L7.78 11.81L7.78 11.81Q6.58 13.02 4.37 13.02L4.37 13.02L1.46 13.02L1.46 3.78L4.37 3.78ZM4.42 12.38L4.42 12.38Q6.27 12.38 7.26 11.33L7.26 11.33L7.26 11.33Q8.25 10.29 8.25 8.33L8.25 8.33L8.25 8.33Q8.25 6.45 7.26 5.44L7.26 5.44L7.26 5.44Q6.27 4.42 4.42 4.42L4.42 4.42L2.16 4.42L2.16 12.38L4.42 12.38ZM16.73 12.56L16.73 12.56Q17.08 12.56 17.28 12.46L17.28 12.46L17.23 13.02L17.23 13.02Q16.98 13.16 16.55 13.16L16.55 13.16L16.55 13.16Q16.06 13.16 15.75 12.89L15.75 12.89L15.75 12.89Q15.44 12.63 15.40 11.97L15.40 11.97L15.40 11.97Q15.08 12.53 14.36 12.84L14.36 12.84L14.36 12.84Q13.65 13.16 12.87 13.16L12.87 13.16L12.87 13.16Q11.83 13.16 11.21 12.70L11.21 12.70L11.21 12.70Q10.58 12.24 10.58 11.38L10.58 11.38L10.58 11.38Q10.58 9.76 13.24 9.28L13.24 9.28L15.39 8.90L15.39 8.29L15.39 8.29Q15.39 7.45 14.89 6.97L14.89 6.97L14.89 6.97Q14.39 6.50 13.48 6.50L13.48 6.50L13.48 6.50Q11.82 6.50 11.24 7.98L11.24 7.98L10.71 7.59L10.71 7.59Q11.02 6.76 11.73 6.32L11.73 6.32L11.73 6.32Q12.45 5.88 13.48 5.88L13.48 5.88L13.48 5.88Q14.70 5.88 15.39 6.47L15.39 6.47L15.39 6.47Q16.09 7.07 16.09 8.20L16.09 8.20L16.09 11.82L16.09 11.82Q16.09 12.56 16.73 12.56L16.73 12.56ZM12.94 12.54L12.94 12.54Q13.52 12.54 14.08 12.34L14.08 12.34L14.08 12.34Q14.64 12.14 15.02 11.74L15.02 11.74L15.02 11.74Q15.39 11.34 15.39 10.78L15.39 10.78L15.39 9.48L13.47 9.83L13.47 9.83Q12.33 10.04 11.82 10.42L11.82 10.42L11.82 10.42Q11.30 10.79 11.30 11.38L11.30 11.38L11.30 11.38Q11.30 11.94 11.73 12.24L11.73 12.24L11.73 12.24Q12.17 12.54 12.94 12.54L12.94 12.54ZM23.27 6.02L24.01 6.02L21.08 13.02L20.38 13.02L17.46 6.02L18.24 6.02L20.75 12.31L23.27 6.02ZM25.84 4.66L25.84 4.66Q25.58 4.66 25.42 4.50L25.42 4.50L25.42 4.50Q25.26 4.34 25.26 4.07L25.26 4.07L25.26 4.07Q25.26 3.81 25.42 3.65L25.42 3.65L25.42 3.65Q25.58 3.49 25.84 3.49L25.84 3.49L25.84 3.49Q26.11 3.49 26.27 3.65L26.27 3.65L26.27 3.65Q26.43 3.81 26.43 4.07L26.43 4.07L26.43 4.07Q26.43 4.34 26.27 4.50L26.27 4.50L26.27 4.50Q26.11 4.66 25.84 4.66L25.84 4.66ZM26.19 6.02L26.19 13.02L25.49 13.02L25.49 6.02L26.19 6.02ZM34.03 2.80L34.73 2.80L34.73 13.02L34.10 13.02L34.06 11.45L34.06 11.45Q33.77 12.25 33.08 12.71L33.08 12.71L33.08 12.71Q32.40 13.16 31.46 13.16L31.46 13.16L31.46 13.16Q29.97 13.16 29.11 12.19L29.11 12.19L29.11 12.19Q28.25 11.23 28.25 9.52L28.25 9.52L28.25 9.52Q28.25 7.81 29.11 6.85L29.11 6.85L29.11 6.85Q29.97 5.88 31.46 5.88L31.46 5.88L31.46 5.88Q32.37 5.88 33.04 6.31L33.04 6.31L33.04 6.31Q33.71 6.75 34.03 7.50L34.03 7.50L34.03 2.80ZM31.54 12.54L31.54 12.54Q32.63 12.54 33.31 11.81L33.31 11.81L33.31 11.81Q33.98 11.07 34.03 9.81L34.03 9.81L34.03 9.23L34.03 9.23Q33.96 7.97 33.30 7.23L33.30 7.23L33.30 7.23Q32.63 6.50 31.54 6.50L31.54 6.50L31.54 6.50Q30.32 6.50 29.64 7.30L29.64 7.30L29.64 7.30Q28.95 8.11 28.95 9.52L28.95 9.52L28.95 9.52Q28.95 10.93 29.64 11.74L29.64 11.74L29.64 11.74Q30.32 12.54 31.54 12.54L31.54 12.54ZM44.67 3.64L44.67 3.64Q47.28 3.64 48.16 5.68L48.16 5.68L47.56 6.17L47.56 6.17Q47.21 5.18 46.51 4.73L46.51 4.73L46.51 4.73Q45.82 4.28 44.69 4.28L44.69 4.28L44.69 4.28Q43.88 4.28 43.27 4.54L43.27 4.54L43.27 4.54Q42.67 4.79 42.36 5.22L42.36 5.22L42.36 5.22Q42.04 5.66 42.04 6.20L42.04 6.20L42.04 6.20Q42.04 6.73 42.31 7.08L42.31 7.08L42.31 7.08Q42.57 7.43 43.21 7.68L43.21 7.68L43.21 7.68Q43.85 7.92 44.97 8.12L44.97 8.12L44.97 8.12Q46.77 8.43 47.53 9.02L47.53 9.02L47.53 9.02Q48.29 9.60 48.29 10.64L48.29 10.64L48.29 10.64Q48.29 11.38 47.85 11.96L47.85 11.96L47.85 11.96Q47.42 12.53 46.63 12.84L46.63 12.84L46.63 12.84Q45.84 13.16 44.81 13.16L44.81 13.16L44.81 13.16Q43.36 13.16 42.36 12.58L42.36 12.58L42.36 12.58Q41.36 12.00 40.99 10.95L40.99 10.95L41.61 10.47L41.61 10.47Q41.89 11.47 42.73 11.99L42.73 11.99L42.73 11.99Q43.58 12.52 44.83 12.52L44.83 12.52L44.83 12.52Q46.03 12.52 46.79 12.03L46.79 12.03L46.79 12.03Q47.56 11.54 47.56 10.68L47.56 10.68L47.56 10.68Q47.56 9.94 46.93 9.51L46.93 9.51L46.93 9.51Q46.31 9.07 44.77 8.81L44.77 8.81L44.77 8.81Q43.47 8.58 42.71 8.26L42.71 8.26L42.71 8.26Q41.96 7.94 41.63 7.46L41.63 7.46L41.63 7.46Q41.30 6.99 41.30 6.27L41.30 6.27L41.30 6.27Q41.30 5.56 41.71 4.96L41.71 4.96L41.71 4.96Q42.13 4.35 42.89 4.00L42.89 4.00L42.89 4.00Q43.65 3.64 44.67 3.64L44.67 3.64ZM53.55 5.88L53.55 5.88Q54.75 5.88 55.49 6.55L55.49 6.55L55.49 6.55Q56.22 7.22 56.22 8.47L56.22 8.47L56.22 13.02L55.52 13.02L55.52 8.69L55.52 8.69Q55.52 7.59 54.97 7.03L54.97 7.03L54.97 7.03Q54.42 6.48 53.48 6.48L53.48 6.48L53.48 6.48Q52.81 6.48 52.23 6.80L52.23 6.80L52.23 6.80Q51.66 7.11 51.32 7.70L51.32 7.70L51.32 7.70Q50.97 8.29 50.97 9.07L50.97 9.07L50.97 13.02L50.27 13.02L50.27 2.80L50.97 2.80L50.97 7.41L50.97 7.41Q51.31 6.66 51.99 6.27L51.99 6.27L51.99 6.27Q52.67 5.88 53.55 5.88L53.55 5.88ZM63.76 6.02L64.46 6.02L64.46 13.02L63.83 13.02L63.80 11.63L63.80 11.63Q63.45 12.38 62.75 12.77L62.75 12.77L62.75 12.77Q62.05 13.16 61.10 13.16L61.10 13.16L61.10 13.16Q59.95 13.16 59.26 12.52L59.26 12.52L59.26 12.52Q58.58 11.89 58.58 10.64L58.58 10.64L58.58 6.02L59.28 6.02L59.28 10.47L59.28 10.47Q59.28 12.54 61.21 12.54L61.21 12.54L61.21 12.54Q61.98 12.54 62.56 12.21L62.56 12.21L62.56 12.21Q63.14 11.87 63.45 11.30L63.45 11.30L63.45 11.30Q63.76 10.72 63.76 10.04L63.76 10.04L63.76 6.02ZM70.53 12.31L70.53 12.31Q71.58 12.31 72.18 12.74L72.18 12.74L72.18 12.74Q72.79 13.17 72.79 13.90L72.79 13.90L72.79 13.90Q72.79 14.53 72.36 15.02L72.36 15.02L72.36 15.02Q71.93 15.50 71.18 15.76L71.18 15.76L71.18 15.76Q70.42 16.03 69.45 16.03L69.45 16.03L69.45 16.03Q67.87 16.03 67.03 15.52L67.03 15.52L67.03 15.52Q66.19 15.01 66.19 14.17L66.19 14.17L66.19 14.17Q66.19 13.62 66.53 13.23L66.53 13.23L66.53 13.23Q66.86 12.84 67.45 12.67L67.45 12.67L67.45 12.67Q67.03 12.49 66.79 12.17L66.79 12.17L66.79 12.17Q66.54 11.84 66.54 11.45L66.54 11.45L66.54 11.45Q66.54 10.95 66.87 10.60L66.87 10.60L66.87 10.60Q67.20 10.25 67.76 10.09L67.76 10.09L67.76 10.09Q67.19 9.80 66.88 9.30L66.88 9.30L66.88 9.30Q66.57 8.81 66.57 8.16L66.57 8.16L66.57 8.16Q66.57 7.13 67.35 6.50L67.35 6.50L67.35 6.50Q68.12 5.88 69.41 5.88L69.41 5.88L69.41 5.88Q70.31 5.88 70.99 6.20L70.99 6.20L70.99 6.20Q71.08 5.53 71.55 5.13L71.55 5.13L71.55 5.13Q72.03 4.73 72.74 4.73L72.74 4.73L72.91 5.35L72.91 5.35Q72.25 5.35 71.88 5.64L71.88 5.64L71.88 5.64Q71.50 5.94 71.44 6.48L71.44 6.48L71.44 6.48Q72.24 7.13 72.24 8.16L72.24 8.16L72.24 8.16Q72.24 9.20 71.46 9.83L71.46 9.83L71.46 9.83Q70.69 10.46 69.41 10.46L69.41 10.46L69.41 10.46Q68.98 10.46 68.46 10.36L68.46 10.36L68.46 10.36Q67.87 10.43 67.54 10.70L67.54 10.70L67.54 10.70Q67.21 10.98 67.21 11.35L67.21 11.35L67.21 11.35Q67.21 11.80 67.59 12.05L67.59 12.05L67.59 12.05Q67.97 12.31 68.73 12.31L68.73 12.31L70.53 12.31ZM67.27 8.16L67.27 8.16Q67.27 8.95 67.84 9.41L67.84 9.41L67.84 9.41Q68.42 9.87 69.41 9.87L69.41 9.87L69.41 9.87Q70.39 9.87 70.97 9.41L70.97 9.41L70.97 9.41Q71.54 8.95 71.54 8.16L71.54 8.16L71.54 8.16Q71.54 7.38 70.97 6.92L70.97 6.92L70.97 6.92Q70.39 6.47 69.41 6.47L69.41 6.47L69.41 6.47Q68.43 6.47 67.85 6.92L67.85 6.92L67.85 6.92Q67.27 7.38 67.27 8.16L67.27 8.16ZM69.52 15.44L69.52 15.44Q70.71 15.44 71.44 15.03L71.44 15.03L71.44 15.03Q72.16 14.62 72.16 13.99L72.16 13.99L72.16 13.99Q72.16 13.48 71.70 13.20L71.70 13.20L71.70 13.20Q71.25 12.91 70.38 12.91L70.38 12.91L68.57 12.91L68.57 12.91Q67.77 12.91 67.30 13.22L67.30 13.22L67.30 13.22Q66.84 13.54 66.84 14.06L66.84 14.06L66.84 14.06Q66.84 14.70 67.54 15.07L67.54 15.07L67.54 15.07Q68.24 15.44 69.52 15.44L69.52 15.44ZM79.98 9.35L79.98 9.35Q79.98 9.59 79.95 9.81L79.95 9.81L74.40 9.81L74.40 9.81Q74.47 11.10 75.16 11.82L75.16 11.82L75.16 11.82Q75.85 12.54 77.01 12.54L77.01 12.54L77.01 12.54Q77.84 12.54 78.43 12.21L78.43 12.21L78.43 12.21Q79.03 11.87 79.30 11.26L79.30 11.26L79.88 11.56L79.88 11.56Q79.49 12.33 78.76 12.75L78.76 12.75L78.76 12.75Q78.04 13.16 77.01 13.16L77.01 13.16L77.01 13.16Q75.46 13.16 74.58 12.19L74.58 12.19L74.58 12.19Q73.71 11.23 73.71 9.52L73.71 9.52L73.71 9.52Q73.71 7.81 74.56 6.85L74.56 6.85L74.56 6.85Q75.40 5.88 76.93 5.88L76.93 5.88L76.93 5.88Q78.36 5.88 79.17 6.83L79.17 6.83L79.17 6.83Q79.98 7.78 79.98 9.35L79.98 9.35ZM76.93 6.50L76.93 6.50Q75.80 6.50 75.14 7.20L75.14 7.20L75.14 7.20Q74.48 7.91 74.40 9.18L74.40 9.18L79.32 9.18L79.32 9.18Q79.25 7.92 78.63 7.21L78.63 7.21L78.63 7.21Q78.01 6.50 76.93 6.50L76.93 6.50ZM84.92 5.88L84.92 5.88Q85.48 5.88 85.81 6.12L85.81 6.12L85.62 6.78L85.62 6.78Q85.30 6.52 84.73 6.52L84.73 6.52L84.73 6.52Q84.20 6.52 83.73 6.85L83.73 6.85L83.73 6.85Q83.26 7.18 82.97 7.78L82.97 7.78L82.97 7.78Q82.68 8.37 82.68 9.10L82.68 9.10L82.68 13.02L81.98 13.02L81.98 6.02L82.57 6.02L82.66 7.45L82.66 7.45Q82.95 6.71 83.53 6.29L83.53 6.29L83.53 6.29Q84.11 5.88 84.92 5.88L84.92 5.88ZM90.66 12.00L90.92 12.57L90.92 12.57Q90.64 12.85 90.23 13.01L90.23 13.01L90.23 13.01Q89.82 13.16 89.33 13.16L89.33 13.16L89.33 13.16Q88.48 13.16 88.00 12.69L88.00 12.69L88.00 12.69Q87.51 12.22 87.51 11.27L87.51 11.27L87.51 6.62L86.11 6.62L86.11 6.02L87.51 6.02L87.51 4.27L88.21 4.07L88.21 6.02L90.85 6.02L90.85 6.62L88.21 6.62L88.21 11.17L88.21 11.17Q88.21 11.83 88.53 12.17L88.53 12.17L88.53 12.17Q88.84 12.52 89.45 12.52L89.45 12.52L89.45 12.52Q90.15 12.52 90.66 12.00L90.66 12.00Z"></path></g><!----><g data-v-423bf9ae="" id="fab17df2-335c-4838-97b0-0b63cbcfe62a" transform="matrix(4.090909090909091,0,0,4.090909090909091,0.9090909090909065,-4.0909090909090935)" stroke="none" fill="black"><path d="M21.5 1h-19A2.503 2.503 0 0 0 0 3.5v17C0 21.878 1.122 23 2.5 23h19c1.378 0 2.5-1.122 2.5-2.5v-17C24 2.122 22.878 1 21.5 1zm-19 1h19c.827 0 1.5.673 1.5 1.5V5H1V3.5C1 2.673 1.673 2 2.5 2zm19 20h-19c-.827 0-1.5-.673-1.5-1.5V6h22v14.5c0 .827-.673 1.5-1.5 1.5z"></path><circle cx="2.5" cy="3.5" r=".5"></circle><circle cx="4.5" cy="3.5" r=".5"></circle><circle cx="6.5" cy="3.5" r=".5"></circle><path d="M7.853 10.148a.5.5 0 0 0-.707.707l2.646 2.646-2.646 2.646a.5.5 0 0 0 .707.708l3-3a.5.5 0 0 0 0-.707l-3-3zM17.5 15h-5a.5.5 0 0 0 0 1h5a.5.5 0 0 0 0-1z"></path></g><!----></svg>