<svg data-v-423bf9ae="" xmlns="http://www.w3.org/2000/svg" viewBox="0 0 65.45454545454545 60" class="icon"><!----><!----><!----><!----><g data-v-423bf9ae="" id="9d9146c5-75c6-4e4b-8493-2c43924de63c" transform="matrix(2.727272727272727,0,0,2.727272727272727,-6.935813203767793e-7,-2.7272727272727266)" stroke="none" fill="white"><path d="M21.5 1h-19A2.503 2.503 0 0 0 0 3.5v17C0 21.878 1.122 23 2.5 23h19c1.378 0 2.5-1.122 2.5-2.5v-17C24 2.122 22.878 1 21.5 1zm-19 1h19c.827 0 1.5.673 1.5 1.5V5H1V3.5C1 2.673 1.673 2 2.5 2zm19 20h-19c-.827 0-1.5-.673-1.5-1.5V6h22v14.5c0 .827-.673 1.5-1.5 1.5z"></path><circle cx="2.5" cy="3.5" r=".5"></circle><circle cx="4.5" cy="3.5" r=".5"></circle><circle cx="6.5" cy="3.5" r=".5"></circle><path d="M7.853 10.148a.5.5 0 0 0-.707.707l2.646 2.646-2.646 2.646a.5.5 0 0 0 .707.708l3-3a.5.5 0 0 0 0-.707l-3-3zM17.5 15h-5a.5.5 0 0 0 0 1h5a.5.5 0 0 0 0-1z"></path></g><!----></svg>