<svg data-v-fde0c5aa="" xmlns="http://www.w3.org/2000/svg" viewBox="0 0 300 300" class="icon"><!----><defs data-v-fde0c5aa=""><!----></defs><rect data-v-fde0c5aa="" fill="transparent" x="0" y="0" width="300px" height="300px" class="logo-background-square"></rect><!----><defs data-v-fde0c5aa=""><linearGradient data-v-fde0c5aa="" gradientTransform="rotate(25)" id="010a38ea-60fc-4095-b1dd-f8461d3a307d" x1="0%" y1="0%" x2="100%" y2="0%"><stop data-v-fde0c5aa="" offset="0%" stop-color="#006678" stop-opacity="1"></stop><stop data-v-fde0c5aa="" offset="100%" stop-color="#4FA8FF" stop-opacity="1"></stop></linearGradient></defs><g data-v-fde0c5aa="" id="88fe1d0d-df96-4390-8843-d7fea2eebaf0" fill="url(#010a38ea-60fc-4095-b1dd-f8461d3a307d)" stroke="none" transform="matrix(9.166666666666666,0,0,9.166666666666666,40,40.00000000000001)"><path d="M21.5 1h-19A2.503 2.503 0 0 0 0 3.5v17C0 21.878 1.122 23 2.5 23h19c1.378 0 2.5-1.122 2.5-2.5v-17C24 2.122 22.878 1 21.5 1zm-19 1h19c.827 0 1.5.673 1.5 1.5V5H1V3.5C1 2.673 1.673 2 2.5 2zm19 20h-19c-.827 0-1.5-.673-1.5-1.5V6h22v14.5c0 .827-.673 1.5-1.5 1.5z"></path><circle cx="2.5" cy="3.5" r=".5"></circle><circle cx="4.5" cy="3.5" r=".5"></circle><circle cx="6.5" cy="3.5" r=".5"></circle><path d="M7.853 10.148a.5.5 0 0 0-.707.707l2.646 2.646-2.646 2.646a.5.5 0 0 0 .707.708l3-3a.5.5 0 0 0 0-.707l-3-3zM17.5 15h-5a.5.5 0 0 0 0 1h5a.5.5 0 0 0 0-1z"></path></g><!----></svg>